<?xml version="1.0" standalone="no"?>
<!DOCTYPE svg PUBLIC "-//W3C//DTD SVG 20010904//EN"
 "http://www.w3.org/TR/2001/REC-SVG-20010904/DTD/svg10.dtd">
<svg version="1.0" xmlns="http://www.w3.org/2000/svg"
 width="1563.000000pt" height="1563.000000pt" viewBox="0 0 1563.000000 1563.000000"
 preserveAspectRatio="xMidYMid meet">

<g transform="translate(0.000000,1563.000000) scale(0.100000,-0.100000)"
fill="#000000" stroke="none">
<path d="M0 7815 l0 -7815 7815 0 7815 0 0 7815 0 7815 -7815 0 -7815 0 0
-7815z m5117 2195 c59 -22 94 -46 100 -69 8 -34 -9 -55 -47 -59 -28 -3 -39 3
-76 43 -24 26 -46 56 -50 67 -6 19 -12 20 -65 14 -115 -12 -206 -72 -244 -162
-22 -54 -19 -67 28 -123 91 -110 236 -184 448 -227 229 -46 574 -36 774 23
114 34 190 70 423 197 209 114 344 158 490 158 l103 1 31 38 c17 22 37 39 44
39 7 0 14 4 16 8 2 5 30 21 63 37 121 57 301 41 419 -38 61 -41 86 -63 86 -80
0 -4 -21 9 -47 31 -27 21 -68 46 -93 56 -25 10 -56 22 -69 28 -49 19 -184 21
-241 4 -79 -23 -190 -101 -177 -124 4 -5 31 -12 60 -15 30 -3 63 -10 73 -15
11 -6 39 -18 64 -27 25 -9 55 -23 67 -31 13 -8 26 -14 29 -13 14 2 64 -57 75
-89 21 -64 -12 -167 -66 -205 -39 -28 -41 -14 -3 30 67 76 72 151 15 211 -64
66 -158 103 -296 115 l-53 4 -20 -45 c-16 -36 -19 -60 -16 -119 4 -68 4 -73
-11 -58 -21 21 -19 126 3 179 9 21 16 41 16 44 0 17 -225 -33 -305 -68 -22
-10 -51 -21 -65 -25 -14 -4 -29 -14 -35 -21 -5 -6 -35 -25 -65 -40 -30 -15
-78 -42 -107 -61 -28 -18 -54 -33 -58 -33 -4 0 -24 -13 -44 -29 -20 -16 -61
-40 -91 -54 -30 -13 -80 -35 -110 -49 -80 -37 -150 -65 -190 -74 -19 -4 -37
-8 -40 -9 -15 -3 -90 -16 -125 -21 -22 -3 -56 -8 -75 -11 -19 -3 -55 -6 -80
-7 -87 -5 -195 -7 -205 -6 -5 1 -18 2 -27 1 -41 -5 -300 41 -344 60 -134 57
-171 80 -225 136 -71 74 -93 135 -87 237 3 39 13 86 22 104 29 56 88 114 141
138 44 21 61 23 142 19 51 -3 105 -10 120 -15z m3348 -21 c34 -17 82 -50 107
-73 l45 -41 93 1 c92 1 205 -19 225 -39 7 -6 0 -7 -20 -3 -29 7 -29 7 -10 -8
11 -8 25 -16 32 -16 16 0 207 -98 263 -135 120 -77 150 -96 167 -102 10 -3 35
-19 55 -35 49 -39 167 -91 253 -113 39 -10 75 -21 80 -25 40 -28 322 -54 520
-48 186 6 295 28 420 87 74 35 156 107 185 164 24 46 43 192 19 152 -35 -61
-64 -94 -107 -127 -89 -69 -221 -123 -363 -152 -118 -24 -136 -26 -279 -32
-203 -10 -431 18 -577 70 -56 20 -189 83 -237 114 -21 13 -118 64 -215 113
-97 48 -168 88 -158 89 19 0 227 -99 307 -146 294 -173 476 -224 804 -224 190
0 237 5 406 46 110 26 188 57 255 101 60 40 134 113 155 153 16 31 16 40 5 73
-30 86 -106 154 -185 164 -22 3 -40 10 -40 14 0 11 -61 12 -75 1 -6 -4 -23
-26 -39 -50 -38 -56 -72 -82 -105 -82 -33 0 -51 17 -51 47 0 89 287 141 395
71 87 -56 134 -136 143 -245 11 -135 -66 -248 -225 -330 -113 -59 -328 -103
-497 -102 -106 0 -218 9 -286 23 -14 3 -61 10 -104 16 -74 9 -188 40 -229 61
-10 5 -40 18 -68 29 -47 19 -194 103 -304 175 -153 99 -312 179 -384 192 -14
2 -44 8 -66 13 -44 10 -135 13 -135 5 0 -4 7 -19 15 -36 25 -47 31 -152 12
-180 -16 -22 -16 -19 -14 52 1 53 -3 88 -17 123 l-19 49 -66 -7 c-66 -6 -80
-8 -136 -24 -64 -18 -112 -48 -153 -96 -32 -38 -41 -57 -38 -76 3 -14 7 -42
11 -62 3 -21 21 -58 40 -83 36 -46 26 -64 -12 -22 -49 53 -77 173 -51 219 20
35 61 79 83 89 11 5 27 13 35 18 38 23 131 55 193 65 l69 12 -49 37 c-26 20
-54 41 -60 47 -31 26 -87 40 -183 47 -66 5 -86 2 -162 -25 -48 -16 -108 -46
-134 -66 -58 -45 -82 -47 -33 -3 101 89 190 118 343 112 76 -3 98 -9 151 -36z
m-624 -39 c15 0 37 -54 33 -80 -9 -54 -35 -128 -49 -140 -22 -19 -39 1 -59 69
-24 81 -21 116 11 141 15 11 33 18 41 15 7 -3 18 -5 23 -5z m-140 -172 c28
-30 69 -117 62 -134 -8 -20 -24 -17 -74 14 -60 39 -79 59 -79 87 0 52 54 71
91 33z m300 1 c20 -20 19 -48 -4 -77 -14 -18 -108 -72 -124 -72 -20 0 -15 36
12 89 42 84 75 101 116 60z m-2646 -1379 c182 -396 383 -818 411 -860 17 -25
44 -48 74 -62 l48 -23 -269 0 c-154 0 -260 4 -247 8 72 26 93 43 102 78 7 31
3 51 -35 145 l-45 109 -241 3 -240 2 -42 -110 c-22 -61 -41 -124 -41 -140 0
-38 28 -66 79 -80 23 -6 41 -12 41 -13 0 -1 -85 -2 -189 -2 -167 0 -187 2
-163 14 40 20 81 61 107 106 34 59 377 857 490 1140 6 17 10 14 28 -25 11 -25
70 -155 132 -290z m1425 -287 c113 -105 220 -203 239 -219 l33 -28 -4 355 c-4
297 -7 360 -21 391 -16 38 -67 78 -99 78 -9 0 -19 3 -21 8 -3 4 86 7 198 7
112 0 202 -1 200 -3 -1 -2 -22 -13 -46 -25 -78 -40 -82 -51 -91 -274 -5 -109
-8 -370 -6 -581 2 -210 0 -382 -4 -382 -5 0 -90 80 -191 178 -305 296 -709
672 -722 672 -4 0 -6 -157 -3 -348 5 -319 7 -352 25 -394 19 -41 66 -78 101
-78 6 0 13 -3 15 -8 3 -4 -86 -7 -198 -7 -112 0 -201 3 -198 8 2 4 9 7 15 7
35 0 82 37 101 79 20 44 21 69 25 613 l5 567 221 -213 c121 -117 313 -299 426
-403z m1330 161 c58 -54 164 -153 235 -219 72 -65 147 -135 168 -155 l39 -35
-4 360 c-4 416 -2 410 -94 455 l-52 25 203 0 c112 0 202 -1 200 -3 -1 -2 -22
-13 -46 -25 -25 -13 -52 -37 -64 -57 -19 -34 -20 -56 -25 -612 l-5 -576 -240
230 c-132 127 -339 322 -460 433 l-220 203 -3 -182 c-1 -99 1 -266 6 -369 10
-213 14 -225 91 -264 24 -12 45 -23 46 -25 2 -2 -88 -3 -200 -3 -112 0 -201 3
-198 8 2 4 12 7 21 7 32 0 83 40 100 78 14 33 17 103 20 610 l4 573 186 -179
c103 -98 234 -223 292 -278z m3533 256 c220 -484 445 -955 478 -1001 12 -18
42 -40 66 -51 23 -10 43 -20 43 -21 0 -1 -119 -2 -265 -2 -146 0 -257 3 -248
7 10 3 33 12 52 19 68 25 70 80 7 232 l-34 82 -240 3 -240 2 -41 -105 c-48
-124 -51 -166 -16 -200 13 -14 32 -25 42 -25 10 0 23 -4 30 -8 6 -4 -125 -6
-290 -6 -314 1 -348 5 -440 49 -54 25 -124 108 -191 225 -32 57 -78 134 -102
171 l-44 69 -75 0 -75 0 0 -137 c1 -181 13 -278 38 -312 10 -14 37 -33 60 -41
22 -9 43 -18 46 -20 2 -3 -114 -5 -259 -5 -246 0 -297 4 -227 18 41 8 88 51
104 95 10 29 13 146 13 522 0 465 -1 487 -20 525 -19 38 -46 57 -113 82 -31
11 539 14 598 3 135 -26 237 -96 287 -198 24 -50 28 -69 28 -147 0 -82 -3 -97
-33 -157 -21 -44 -51 -84 -88 -117 l-55 -51 77 -132 c104 -179 147 -242 218
-317 68 -70 137 -111 190 -111 48 0 94 43 139 127 38 73 366 836 438 1020 24
62 47 109 51 105 4 -4 45 -90 91 -192z m-7496 157 c129 -43 202 -128 211 -245
9 -130 -54 -237 -171 -293 l-59 -28 43 -11 c152 -38 237 -122 259 -253 26
-165 -66 -307 -245 -378 -59 -23 -68 -23 -388 -24 l-327 0 54 24 c46 19 59 31
77 67 20 42 21 63 26 402 2 196 1 423 -4 505 -11 171 -18 187 -101 228 l-53
25 313 -1 c265 -1 321 -4 365 -18z m5357 12 c-2 -4 -16 -10 -31 -14 -44 -11
-81 -43 -95 -83 -10 -29 -13 -144 -13 -512 0 -261 4 -492 8 -512 9 -45 56 -94
97 -103 71 -16 22 -20 -225 -20 -246 0 -297 4 -227 18 42 9 90 53 102 95 15
49 24 738 13 905 -11 148 -20 168 -100 207 l-51 25 263 0 c145 0 261 -3 259
-6z m-4644 -1715 c0 -107 1 -116 20 -121 11 -3 20 -9 20 -13 0 -16 -28 -18
-49 -4 -19 14 -21 24 -21 135 0 99 3 119 15 119 12 0 15 -20 15 -116z m1245
96 c0 -22 -29 -18 -33 3 -3 14 1 18 15 15 10 -2 18 -10 18 -18z m1145 -95 c0
-94 3 -117 15 -121 25 -10 17 -26 -12 -22 l-28 3 -3 128 c-2 108 0 127 13 127
13 0 15 -18 15 -115z m1660 0 c0 -106 1 -115 21 -126 16 -8 18 -13 9 -19 -15
-9 -41 -2 -52 14 -4 6 -8 64 -8 129 0 97 3 117 15 117 12 0 15 -19 15 -115z
m565 95 c0 -22 -29 -18 -33 3 -3 14 1 18 15 15 10 -2 18 -10 18 -18z m1125 0
c0 -21 -24 -28 -35 -10 -8 14 3 30 21 30 8 0 14 -9 14 -20z m355 0 c0 -22 -29
-18 -33 3 -3 14 1 18 15 15 10 -2 18 -10 18 -18z m-6524 -8 c14 -12 20 -25 16
-36 -6 -15 -8 -15 -27 4 -30 30 -83 27 -109 -6 -28 -35 -29 -112 -2 -145 25
-31 86 -32 111 -1 10 12 23 22 29 22 33 0 -12 -57 -54 -69 -41 -11 -93 7 -119
42 -26 35 -28 121 -3 157 35 51 114 67 158 32z m2386 -6 c35 -30 23 -46 -16
-23 -16 9 -43 17 -59 17 -84 0 -101 -161 -20 -189 33 -12 75 0 84 24 7 18 34
20 34 2 0 -27 -46 -58 -87 -59 -76 -1 -113 42 -113 133 0 45 4 55 34 85 43 43
100 47 143 10z m1464 14 c25 -14 26 -46 2 -34 -10 4 -36 8 -58 8 -38 1 -40 -1
-40 -28 0 -26 5 -31 53 -46 65 -22 75 -31 75 -70 0 -46 -28 -70 -83 -70 -57 0
-104 30 -82 52 10 10 15 10 20 1 13 -21 60 -33 88 -23 20 8 25 16 22 37 -2 23
-12 31 -53 46 -62 23 -77 37 -77 73 0 52 77 83 133 54z m1868 -6 c31 -22 14
-37 -25 -22 -40 15 -84 4 -84 -22 0 -23 10 -30 70 -51 59 -20 79 -53 61 -98
-9 -21 -23 -34 -45 -39 -59 -16 -147 21 -118 50 9 9 16 8 31 -6 26 -24 80 -24
97 -1 20 27 -2 55 -54 71 -58 17 -72 31 -72 70 0 23 7 38 22 48 29 21 87 20
117 0z m-5119 -24 c0 -16 7 -20 30 -20 20 0 30 -5 30 -15 0 -10 -10 -15 -30
-15 -30 0 -30 -1 -30 -52 0 -61 11 -83 39 -83 35 0 23 -20 -14 -23 -30 -3 -36
1 -45 23 -6 14 -10 51 -10 81 0 41 -4 54 -15 54 -8 0 -15 7 -15 15 0 8 6 15
14 15 7 0 16 9 19 20 3 11 10 20 16 20 6 0 11 -9 11 -20z m3430 0 c0 -16 7
-20 30 -20 20 0 30 -5 30 -15 0 -10 -10 -15 -30 -15 -30 0 -30 0 -30 -59 0
-61 14 -86 43 -75 8 3 18 1 22 -5 8 -13 -34 -31 -55 -23 -29 10 -40 36 -40 99
0 49 -3 63 -15 63 -8 0 -15 7 -15 15 0 8 7 15 15 15 8 0 15 9 15 20 0 11 7 20
15 20 8 0 15 -9 15 -20z m2650 0 c0 -16 7 -20 30 -20 20 0 30 -5 30 -15 0 -10
-10 -15 -30 -15 -30 0 -30 -1 -30 -52 0 -61 11 -83 39 -83 35 0 23 -20 -14
-23 -30 -3 -36 1 -45 23 -6 14 -10 51 -10 81 0 41 -4 54 -15 54 -8 0 -15 7
-15 15 0 8 6 15 14 15 7 0 16 9 19 20 3 11 10 20 16 20 6 0 11 -9 11 -20z
m-6520 -93 c0 -73 9 -97 39 -97 35 0 51 31 51 102 0 54 3 68 15 68 12 0 15
-17 15 -95 0 -78 -3 -95 -15 -95 -8 0 -15 5 -15 12 0 9 -3 9 -12 0 -17 -17
-74 -15 -92 4 -23 22 -23 174 -1 174 12 0 15 -15 15 -73z m630 7 c0 -73 12
-104 40 -104 36 0 50 27 50 95 0 35 5 67 11 70 6 4 12 5 13 4 2 -2 7 -46 10
-96 6 -79 5 -93 -7 -93 -9 0 -17 5 -19 11 -2 7 -13 5 -31 -4 -62 -32 -97 6
-97 104 0 36 3 69 7 72 17 17 23 2 23 -59z m275 56 c4 -6 15 -5 30 2 26 12 60
4 50 -12 -3 -5 -17 -10 -30 -10 -33 0 -45 -27 -45 -99 0 -48 -3 -61 -15 -61
-12 0 -15 17 -15 95 0 86 8 113 25 85z m304 -11 c16 -15 21 -30 19 -52 -3 -32
-3 -32 -65 -35 -67 -3 -75 -10 -43 -42 24 -24 47 -25 72 -3 12 11 22 13 28 7
17 -17 -25 -46 -67 -46 -48 0 -83 37 -83 88 0 38 22 89 42 97 31 12 75 6 97
-14z m301 -74 c0 -78 -3 -95 -15 -95 -12 0 -15 16 -15 88 0 49 3 92 7 95 18
19 23 -1 23 -88z m152 84 c3 -9 9 -9 25 0 31 16 63 14 85 -6 24 -22 27 -173 3
-173 -11 0 -15 18 -17 78 -3 76 -3 77 -31 80 -46 5 -57 -12 -57 -89 0 -55 -3
-69 -15 -69 -12 0 -15 17 -15 95 0 52 4 95 9 95 5 0 11 -5 13 -11z m830 -19
c27 -28 30 -36 25 -77 -6 -53 -32 -84 -73 -85 -50 -1 -75 12 -90 48 -44 104
61 190 138 114z m433 5 c35 -34 35 -112 1 -144 -56 -53 -146 -13 -146 65 0 38
22 89 42 97 34 14 80 6 103 -18z m165 8 c0 -15 2 -15 19 1 21 19 52 18 58 -1
3 -7 -8 -13 -24 -15 -36 -4 -53 -38 -53 -105 0 -40 -4 -53 -15 -53 -12 0 -15
16 -15 88 0 49 3 92 7 95 12 12 23 7 23 -10z m971 -30 c11 -27 26 -61 33 -77
l12 -29 28 76 c18 48 34 77 43 77 17 0 16 -1 -35 -134 -21 -52 -45 -105 -55
-116 -20 -24 -77 -28 -77 -5 0 10 10 15 28 15 51 0 55 33 16 130 -19 46 -34
90 -34 97 0 29 22 10 41 -34z m520 26 c14 -14 19 -30 17 -52 -3 -32 -3 -32
-65 -35 -67 -3 -75 -10 -43 -42 24 -24 47 -25 72 -3 12 11 22 13 28 7 17 -17
-25 -46 -67 -46 -70 0 -106 79 -68 152 17 32 27 38 73 39 20 1 40 -7 53 -20z
m299 -74 c0 -78 -3 -95 -15 -95 -12 0 -15 16 -15 88 0 49 3 92 7 95 18 19 23
-1 23 -88z m152 84 c3 -9 9 -9 25 0 31 16 63 14 85 -6 24 -22 27 -173 3 -173
-11 0 -15 18 -17 78 -3 76 -3 77 -31 80 -46 5 -57 -12 -57 -89 0 -55 -3 -69
-15 -69 -12 0 -15 17 -15 95 0 52 4 95 9 95 5 0 11 -5 13 -11z m692 2 c4 -5
18 -5 34 1 44 17 81 3 98 -37 19 -47 18 -74 -7 -114 -19 -32 -22 -33 -69 -29
l-49 5 -3 -40 c-2 -22 -9 -42 -15 -45 -10 -3 -13 28 -13 132 0 123 6 156 24
127z m286 -86 c0 -78 -3 -95 -15 -95 -12 0 -15 17 -15 95 0 78 3 95 15 95 12
0 15 -17 15 -95z m150 79 c0 -14 2 -14 16 1 18 18 55 17 62 -2 2 -8 -6 -13
-21 -13 -43 0 -57 -24 -57 -96 0 -50 -3 -64 -15 -64 -12 0 -15 17 -15 95 0 78
3 95 15 95 8 0 15 -7 15 -16z m200 -79 c0 -78 -3 -95 -15 -95 -12 0 -15 16
-15 88 0 49 3 92 7 95 18 19 23 -1 23 -88z m-3062 -78 c2 -12 -3 -17 -17 -17
-12 0 -21 6 -21 13 0 31 32 34 38 4z m3422 3 c0 -21 -24 -28 -35 -10 -8 14 3
30 21 30 8 0 14 -9 14 -20z m-5650 -549 c135 -23 235 -50 317 -88 28 -12 55
-23 60 -23 4 -1 44 -23 88 -50 44 -27 94 -57 110 -66 17 -9 53 -31 80 -49 91
-59 226 -135 240 -135 8 0 16 -4 20 -9 4 -8 89 -41 120 -47 98 -19 135 -24
168 -24 33 0 38 3 32 18 -39 90 -45 160 -20 208 14 27 14 24 12 -51 -1 -58 3
-93 16 -127 18 -47 20 -48 60 -48 67 1 199 35 242 62 50 32 91 75 103 108 15
41 -9 133 -47 180 -20 25 -27 40 -18 40 55 0 119 -181 85 -242 -43 -76 -153
-138 -296 -167 l-83 -17 60 -47 c81 -64 108 -74 228 -84 61 -5 83 -2 155 22
83 27 113 42 139 68 21 21 59 39 59 28 0 -15 -78 -69 -150 -104 -61 -30 -71
-32 -180 -32 -112 0 -117 1 -182 35 -36 19 -86 52 -110 74 l-43 38 -110 3
c-86 2 -129 9 -195 30 -82 26 -258 107 -350 161 -295 174 -478 224 -813 224
-100 0 -198 -4 -217 -10 -19 -5 -50 -10 -68 -10 -71 0 -286 -75 -369 -128 -57
-36 -133 -114 -156 -158 -18 -35 -14 -63 18 -114 33 -53 89 -98 137 -110 24
-7 51 -16 62 -22 30 -16 92 0 104 27 18 40 81 102 107 107 47 9 82 -40 57 -79
-4 -7 -34 -24 -66 -39 -79 -36 -214 -45 -282 -19 -62 23 -119 77 -151 139 -33
66 -43 188 -19 236 9 18 16 38 16 45 0 21 71 95 129 133 87 58 145 81 291 112
125 27 148 28 310 25 116 -2 217 -10 300 -24z m4536 17 c11 2 51 -2 89 -8 37
-6 93 -13 124 -16 60 -6 152 -39 243 -86 71 -38 158 -129 179 -188 54 -154
-17 -327 -156 -379 -93 -35 -278 -12 -335 42 -44 40 -6 106 49 86 30 -11 88
-72 102 -108 9 -22 13 -23 70 -18 83 9 153 42 198 93 37 43 69 122 57 142 -3
6 -2 12 3 14 18 6 -9 122 -41 171 -51 79 -116 122 -273 180 -93 35 -171 46
-340 48 -215 3 -341 -9 -494 -47 -175 -44 -217 -64 -535 -256 -90 -54 -277
-145 -325 -158 -22 -6 -41 -13 -41 -17 0 -5 36 1 75 11 25 7 173 72 210 93
268 149 397 208 525 241 265 68 634 59 900 -23 134 -41 281 -139 316 -209 14
-27 9 -24 -33 20 -160 165 -393 237 -768 237 -344 0 -504 -44 -840 -233 -88
-49 -166 -90 -173 -90 -7 0 -20 -4 -30 -10 -67 -37 -173 -62 -290 -67 -121 -6
-123 -6 -148 -36 -57 -68 -158 -117 -257 -124 -113 -9 -211 17 -302 78 -40 27
-75 55 -79 64 -8 23 1 19 52 -23 73 -60 152 -88 272 -98 112 -9 205 24 290
103 21 20 23 25 10 33 -8 5 -27 10 -42 10 -32 0 -103 23 -173 56 -126 60 -150
89 -149 178 1 70 20 112 67 146 41 31 43 20 4 -23 -38 -43 -61 -111 -51 -153
8 -36 56 -87 109 -118 48 -28 165 -56 233 -56 46 0 50 2 63 33 8 18 14 67 14
114 0 60 3 79 11 72 28 -23 20 -157 -13 -208 l-15 -23 49 5 c76 8 223 46 281
73 29 13 55 24 59 24 4 0 14 6 22 14 9 8 45 29 81 48 36 18 84 46 107 61 24
15 45 27 48 27 4 0 23 13 43 30 20 16 64 41 97 55 61 27 150 68 195 90 22 11
78 27 145 41 11 3 50 8 87 13 37 5 71 12 77 15 5 4 74 9 153 12 79 3 145 8
147 10 2 2 9 0 15 -3 6 -4 20 -6 32 -5z m-2516 -319 c0 -32 -60 -138 -81 -144
-26 -9 -57 3 -69 25 -16 31 5 67 62 104 62 41 88 45 88 15z m153 5 c48 -24 97
-75 97 -100 0 -13 -7 -30 -16 -38 -36 -37 -79 -8 -121 81 -33 72 -22 88 40 57z
m-84 -88 c18 -21 44 -142 37 -170 -9 -38 -47 -59 -80 -46 -40 15 -49 51 -30
123 16 63 38 107 53 107 5 0 14 -6 20 -14z"/>
<path d="M6710 9833 c-15 -5 -31 -12 -125 -53 -63 -28 -161 -78 -245 -125
-126 -70 -266 -134 -330 -150 -36 -9 -81 -21 -100 -26 -42 -11 -330 -37 -382
-33 -312 19 -439 45 -593 122 -87 43 -159 102 -196 161 l-29 46 6 -50 c9 -77
22 -111 66 -166 50 -64 105 -98 226 -142 115 -42 185 -55 307 -57 50 -1 104
-3 120 -5 44 -6 233 13 365 37 187 34 276 72 545 234 140 84 263 149 360 189
50 20 54 35 5 18z"/>
<path d="M5043 8123 l-91 -228 77 -7 c67 -6 321 0 321 8 0 7 -202 440 -209
447 -4 4 -48 -95 -98 -220z"/>
<path d="M10066 8599 c-3 -17 -6 -150 -6 -295 l0 -263 45 -7 c83 -12 173 15
222 68 40 43 66 118 71 204 11 201 -88 324 -259 324 -66 0 -67 0 -73 -31z"/>
<path d="M11477 8338 c-52 -129 -177 -439 -177 -442 0 -8 225 -14 307 -8 l92
7 -90 195 c-50 107 -97 210 -105 228 -16 35 -19 38 -27 20z"/>
<path d="M3863 8642 c-8 -5 -12 -79 -15 -252 l-3 -245 52 -3 c103 -6 180 36
226 122 18 33 22 58 22 131 0 104 -19 152 -81 203 -51 42 -165 67 -201 44z"/>
<path d="M3861 8073 l-23 -5 4 -221 c3 -192 6 -227 23 -261 38 -79 167 -100
255 -42 72 47 103 121 102 242 -1 167 -105 277 -272 288 -36 2 -76 2 -89 -1z"/>
<path d="M5700 6981 c-15 -30 -14 -31 40 -31 50 0 55 4 44 34 -9 24 -71 21
-84 -3z"/>
<path d="M6982 6988 c-18 -18 -15 -94 4 -112 51 -52 122 36 80 99 -18 27 -63
34 -84 13z"/>
<path d="M7416 6984 c-23 -22 -20 -80 4 -104 24 -24 38 -25 68 -4 24 17 30 70
12 105 -13 23 -62 26 -84 3z"/>
<path d="M9070 6981 c-15 -30 -14 -31 40 -31 50 0 55 4 44 34 -9 24 -71 21
-84 -3z"/>
<path d="M10332 6988 c-7 -7 -12 -31 -12 -53 0 -63 42 -93 84 -62 22 16 26 88
6 112 -15 18 -61 20 -78 3z"/>
<path d="M5277 6314 c-1 -1 -48 -4 -104 -8 -56 -3 -118 -13 -137 -21 -20 -8
-59 -20 -88 -26 -58 -13 -134 -48 -188 -88 -43 -31 -90 -81 -90 -95 0 -5 -6
-17 -14 -25 -16 -18 -37 -149 -25 -156 4 -3 12 8 17 24 26 75 166 175 317 227
158 54 285 70 545 68 286 -3 444 -42 670 -168 156 -87 408 -212 445 -220 17
-3 -30 23 -103 59 -72 36 -151 78 -174 95 -22 16 -45 30 -50 30 -5 0 -30 16
-55 35 -25 19 -50 35 -55 35 -5 0 -42 22 -82 48 -41 27 -89 54 -107 61 -19 7
-43 17 -54 22 -11 4 -47 15 -80 24 -33 9 -69 20 -80 25 -27 12 -120 30 -186
36 -62 5 -320 20 -322 18z"/>
</g>
</svg>
